<svg width="360" height="640" viewBox="0 0 360 640" fill="none" xmlns="http://www.w3.org/2000/svg">
<g clip-path="url(#clip0)">
<path d="M360 0H0V640H360V0Z" fill="black"/>
<path d="M69.4008 283.362C124.983 279.38 181.297 261.304 221.577 222.798C259.025 186.999 257.97 129.075 279.896 82.1382C302.082 34.6442 356.81 -2.3858 351.11 -54.4958C345.417 -106.542 285.176 -131.715 252.068 -172.274C217.656 -214.431 203.007 -276.905 152.674 -297.593C101.626 -318.574 44.2218 -295.63 -8.52415 -279.38C-60.6622 -263.317 -113.888 -244.993 -150.206 -204.282C-186.776 -163.287 -205.258 -108.864 -209.498 -54.0918C-213.575 -1.4248 -192.02 47.4672 -173.526 96.9492C-153.63 150.18 -142.548 211.059 -97.4642 245.655C-51.2892 281.088 11.3468 287.521 69.4008 283.362Z" fill="#171717"/>
<path d="M281.439 893C332.479 892.671 381.143 873.182 423.449 844.628C465.107 816.511 491.913 774.396 519.453 732.354C551.719 683.098 601.988 636.889 598.014 578.14C594.019 519.082 546.524 470.581 499.327 434.856C457.043 402.85 401.625 402.236 349.939 390.367C301.692 379.287 252.581 350.146 206.239 367.551C160.264 384.818 140.084 437.04 114.331 478.857C92.336 514.574 74.162 551.484 67.467 592.892C60.68 634.869 64.295 676.647 75.727 717.603C88.828 764.54 101.165 814.851 138.247 846.468C177.227 879.703 230.215 893.33 281.439 893Z" fill="#0D0D0D"/>
</g>
<defs>
<clipPath id="clip0">
<rect width="360" height="640" fill="white"/>
</clipPath>
</defs>
</svg>
