<svg width="43" height="43" viewBox="0 0 43 43" fill="none" xmlns="http://www.w3.org/2000/svg">
<circle cx="21.5" cy="21.5" r="21.5" fill="#2B2B2B"/>
<path d="M10.5625 36.375H32.4375V30.9062C32.4352 28.8764 31.6278 26.9303 30.1925 25.495C28.7572 24.0597 26.8111 23.2523 24.7812 23.25H18.2188C16.1889 23.2523 14.2428 24.0597 12.8075 25.495C11.3722 26.9303 10.5648 28.8764 10.5625 30.9062V36.375Z" fill="#949494"/>
<path d="M13.8438 13.8438C13.8438 15.358 14.2928 16.8383 15.1341 18.0973C15.9753 19.3564 17.1711 20.3377 18.5701 20.9172C19.9691 21.4967 21.5085 21.6483 22.9937 21.3529C24.4788 21.0575 25.843 20.3283 26.9138 19.2575C27.9845 18.1868 28.7137 16.8226 29.0091 15.3374C29.3046 13.8522 29.1529 12.3128 28.5735 10.9138C27.994 9.51483 27.0126 8.31909 25.7536 7.47781C24.4945 6.63653 23.0143 6.1875 21.5 6.1875C19.4694 6.1875 17.522 6.99414 16.0862 8.42996C14.6504 9.86579 13.8438 11.8132 13.8438 13.8438V13.8438Z" fill="#949494"/>
</svg>
